<?xml version="1.0" encoding="UTF-8" standalone="no"?>
<!DOCTYPE svg PUBLIC "-//W3C//DTD SVG 1.1//EN"
 "http://www.w3.org/Graphics/SVG/1.1/DTD/svg11.dtd">
<!-- Generated by graphviz version 2.40.1 (20161225.0304)
 -->
<!-- Title: G Pages: 1 -->
<svg width="567pt" height="819pt"
 viewBox="0.00 0.00 566.50 819.00" xmlns="http://www.w3.org/2000/svg" xmlns:xlink="http://www.w3.org/1999/xlink">
<g id="graph0" class="graph" transform="scale(1 1) rotate(0) translate(4 815)">
<title>G</title>
<polygon fill="#ffffff" stroke="transparent" points="-4,4 -4,-815 562.5,-815 562.5,4 -4,4"/>
<text text-anchor="middle" x="279.25" y="-795.8" font-family="Times,serif" font-size="14.00" fill="#000000">ABISM</text>
<text text-anchor="middle" x="279.25" y="-780.8" font-family="Times,serif" font-size="14.00" fill="#000000">Adaptative Background Interactive Strehl Meter</text>
<g id="clust2" class="cluster">
<title>cluster_front</title>
<polygon fill="none" stroke="#520c04" stroke-width="5" points="198,-371 198,-665 522,-665 522,-371 198,-371"/>
<text text-anchor="middle" x="360" y="-649.8" font-family="Times,serif" font-size="14.00" fill="#520c04">FrontEnd</text>
</g>
<g id="clust3" class="cluster">
<title>cluster_back</title>
<polygon fill="none" stroke="#003b46" stroke-width="5" points="193,-8 193,-299 513,-299 513,-8 193,-8"/>
<text text-anchor="middle" x="353" y="-283.8" font-family="Times,serif" font-size="14.00" fill="#003b46">BackEnd</text>
</g>
<g id="clust4" class="cluster">
<title>cluster_plugin</title>
<polygon fill="none" stroke="#34075e" stroke-width="5" points="8,-152 8,-446 122,-446 122,-152 8,-152"/>
<text text-anchor="middle" x="65" y="-430.8" font-family="Times,serif" font-size="14.00" fill="#34075e">Plugin</text>
</g>
<!-- abism___main__ -->
<g id="node1" class="node">
<title>abism___main__</title>
<polygon fill="#ffffff" stroke="#000000" points="279.5,-773 112.5,-773 112.5,-710 279.5,-710 279.5,-773"/>
<text text-anchor="middle" x="196" y="-761" font-family="Helvetica,sans-Serif" font-size="10.00" fill="#000000">ABISM</text>
<text text-anchor="start" x="120.5" y="-750" font-family="Helvetica,sans-Serif" font-size="10.00" fill="#000000">sh&gt; abism</text>
<text text-anchor="start" x="120.5" y="-739" font-family="Helvetica,sans-Serif" font-size="10.00" fill="#000000">sh&gt; python path/to/clone/abism.py</text>
<text text-anchor="start" x="120.5" y="-728" font-family="Helvetica,sans-Serif" font-size="10.00" fill="#000000">sh&gt; python &#45;m abism</text>
<text text-anchor="start" x="120.5" y="-717" font-family="Helvetica,sans-Serif" font-size="10.00" fill="#000000">py&gt; from abism import __main__</text>
</g>
<!-- abism_run -->
<g id="node2" class="node">
<title>abism_run</title>
<polygon fill="#ffffff" stroke="#000000" points="558.5,-762 297.5,-762 297.5,-721 558.5,-721 558.5,-762"/>
<text text-anchor="middle" x="428" y="-750" font-family="Helvetica,sans-Serif" font-size="10.00" fill="#000000">run</text>
<text text-anchor="start" x="305.5" y="-739" font-family="Helvetica,sans-Serif" font-size="10.00" fill="#000000">py&gt;from abism.run import run_sync; run_sync()</text>
<text text-anchor="start" x="305.5" y="-728" font-family="Helvetica,sans-Serif" font-size="10.00" fill="#000000">ipy&gt;from abism.run import run_async; sm = run_async()</text>
</g>
<!-- abism___main__&#45;&gt;abism_run -->
<g id="edge1" class="edge">
<title>abism___main__&#45;&gt;abism_run</title>
<path fill="none" stroke="#000000" d="M279.7573,-741C279.7573,-741 287.168,-741 287.168,-741"/>
<polygon fill="#000000" stroke="#000000" points="287.1681,-744.5001 297.168,-741 287.168,-737.5001 287.1681,-744.5001"/>
</g>
<!-- abism_front_window_root -->
<g id="node7" class="node">
<title>abism_front_window_root</title>
<ellipse fill="#d48a7d" stroke="#000000" cx="428" cy="-616" rx="41.5911" ry="18"/>
<text text-anchor="middle" x="428" y="-613.5" font-family="Helvetica,sans-Serif" font-size="10.00" fill="#000000">window_root</text>
</g>
<!-- abism_run&#45;&gt;abism_front_window_root -->
<g id="edge26" class="edge">
<title>abism_run&#45;&gt;abism_front_window_root</title>
<path fill="none" stroke="#000000" d="M428,-720.7762C428,-720.7762 428,-644.3033 428,-644.3033"/>
<polygon fill="#a83838" stroke="#000000" points="431.5001,-644.3033 428,-634.3033 424.5001,-644.3034 431.5001,-644.3033"/>
</g>
<!-- abism_front_frame_text -->
<g id="node3" class="node">
<title>abism_front_frame_text</title>
<ellipse fill="#d48a7d" stroke="#000000" cx="477" cy="-544" rx="37.1717" ry="18"/>
<text text-anchor="middle" x="477" y="-541.5" font-family="Helvetica,sans-Serif" font-size="10.00" fill="#000000">frame_text</text>
</g>
<!-- abism_front_menu_bar -->
<g id="node4" class="node">
<title>abism_front_menu_bar</title>
<ellipse fill="#d48a7d" stroke="#000000" cx="296" cy="-544" rx="34.9638" ry="18"/>
<text text-anchor="middle" x="296" y="-541.5" font-family="Helvetica,sans-Serif" font-size="10.00" fill="#000000">menu_bar</text>
</g>
<!-- abism_front_pick -->
<g id="node10" class="node">
<title>abism_front_pick</title>
<ellipse fill="#d48a7d" stroke="#000000" cx="318" cy="-472" rx="27" ry="18"/>
<text text-anchor="middle" x="318" y="-469.5" font-family="Helvetica,sans-Serif" font-size="10.00" fill="#000000">pick</text>
</g>
<!-- abism_front_menu_bar&#45;&gt;abism_front_pick -->
<g id="edge25" class="edge">
<title>abism_front_menu_bar&#45;&gt;abism_front_pick</title>
<path fill="none" stroke="#000000" d="M310.8656,-527.6621C310.8656,-527.6621 310.8656,-499.5312 310.8656,-499.5312"/>
<polygon fill="#8a2e2e" stroke="#000000" points="314.3657,-499.5311 310.8656,-489.5312 307.3657,-499.5312 314.3657,-499.5311"/>
</g>
<!-- abism_plugin_histogram -->
<g id="node18" class="node">
<title>abism_plugin_histogram</title>
<ellipse fill="#7fb6c7" stroke="#000000" cx="77" cy="-397" rx="34.9638" ry="18"/>
<text text-anchor="middle" x="77" y="-394.5" font-family="Helvetica,sans-Serif" font-size="10.00" fill="#000000">histogram</text>
</g>
<!-- abism_front_menu_bar&#45;&gt;abism_plugin_histogram -->
<g id="edge28" class="edge">
<title>abism_front_menu_bar&#45;&gt;abism_plugin_histogram</title>
<path fill="none" stroke="#000000" d="M260.8139,-544C198.9076,-544 77,-544 77,-544 77,-544 77,-425.0251 77,-425.0251"/>
<polygon fill="#8a2e2e" stroke="#000000" points="80.5001,-425.0251 77,-415.0251 73.5001,-425.0251 80.5001,-425.0251"/>
</g>
<!-- abism_plugin_xterm_console -->
<g id="node19" class="node">
<title>abism_plugin_xterm_console</title>
<ellipse fill="#7fb6c7" stroke="#000000" cx="63" cy="-325" rx="47.1863" ry="18"/>
<text text-anchor="middle" x="63" y="-322.5" font-family="Helvetica,sans-Serif" font-size="10.00" fill="#000000">xterm_console</text>
</g>
<!-- abism_front_menu_bar&#45;&gt;abism_plugin_xterm_console -->
<g id="edge30" class="edge">
<title>abism_front_menu_bar&#45;&gt;abism_plugin_xterm_console</title>
<path fill="none" stroke="#000000" d="M269.0924,-532.534C269.0924,-487.4731 269.0924,-325 269.0924,-325 269.0924,-325 120.2818,-325 120.2818,-325"/>
<polygon fill="#8a2e2e" stroke="#000000" points="120.2818,-321.5001 110.2818,-325 120.2817,-328.5001 120.2818,-321.5001"/>
</g>
<!-- abism_plugin_debug_console -->
<g id="node20" class="node">
<title>abism_plugin_debug_console</title>
<ellipse fill="#7fb6c7" stroke="#000000" cx="64" cy="-250" rx="48.0418" ry="18"/>
<text text-anchor="middle" x="64" y="-247.5" font-family="Helvetica,sans-Serif" font-size="10.00" fill="#000000">debug_console</text>
</g>
<!-- abism_front_menu_bar&#45;&gt;abism_plugin_debug_console -->
<g id="edge27" class="edge">
<title>abism_front_menu_bar&#45;&gt;abism_plugin_debug_console</title>
<path fill="none" stroke="#000000" d="M271.2198,-531.2534C271.2198,-475.5167 271.2198,-256 271.2198,-256 271.2198,-256 119.7318,-256 119.7318,-256"/>
<polygon fill="#8a2e2e" stroke="#000000" points="119.7318,-252.5001 109.7318,-256 119.7318,-259.5001 119.7318,-252.5001"/>
</g>
<!-- abism_plugin_window_header -->
<g id="node21" class="node">
<title>abism_plugin_window_header</title>
<ellipse fill="#7fb6c7" stroke="#000000" cx="65" cy="-178" rx="49.3954" ry="18"/>
<text text-anchor="middle" x="65" y="-175.5" font-family="Helvetica,sans-Serif" font-size="10.00" fill="#000000">window_header</text>
</g>
<!-- abism_front_menu_bar&#45;&gt;abism_plugin_window_header -->
<g id="edge29" class="edge">
<title>abism_front_menu_bar&#45;&gt;abism_plugin_window_header</title>
<path fill="none" stroke="#000000" d="M273.3471,-530.3272C273.3471,-464.5688 273.3471,-184 273.3471,-184 273.3471,-184 121.7572,-184 121.7572,-184"/>
<polygon fill="#8a2e2e" stroke="#000000" points="121.7572,-180.5001 111.7572,-184 121.7571,-187.5001 121.7572,-180.5001"/>
</g>
<!-- abism_front_AnswerReturn -->
<g id="node5" class="node">
<title>abism_front_AnswerReturn</title>
<ellipse fill="#d48a7d" stroke="#000000" cx="467" cy="-397" rx="46.5087" ry="18"/>
<text text-anchor="middle" x="467" y="-394.5" font-family="Helvetica,sans-Serif" font-size="10.00" fill="#000000">AnswerReturn</text>
</g>
<!-- abism_back_image_info -->
<g id="node15" class="node">
<title>abism_back_image_info</title>
<ellipse fill="#bf9ede" stroke="#000000" cx="467" cy="-106" rx="37.8497" ry="18"/>
<text text-anchor="middle" x="467" y="-103.5" font-family="Helvetica,sans-Serif" font-size="10.00" fill="#000000">image_info</text>
</g>
<!-- abism_front_AnswerReturn&#45;&gt;abism_back_image_info -->
<g id="edge12" class="edge">
<title>abism_front_AnswerReturn&#45;&gt;abism_back_image_info</title>
<path fill="none" stroke="#000000" d="M485.8372,-380.5208C485.8372,-380.5208 485.8372,-131.9412 485.8372,-131.9412"/>
<polygon fill="#9b2626" stroke="#000000" points="489.3373,-131.9412 485.8372,-121.9412 482.3373,-131.9413 489.3373,-131.9412"/>
</g>
<!-- abism_back_Strehl -->
<g id="node16" class="node">
<title>abism_back_Strehl</title>
<ellipse fill="#bf9ede" stroke="#000000" cx="348" cy="-250" rx="27" ry="18"/>
<text text-anchor="middle" x="348" y="-247.5" font-family="Helvetica,sans-Serif" font-size="10.00" fill="#000000">Strehl</text>
</g>
<!-- abism_front_AnswerReturn&#45;&gt;abism_back_Strehl -->
<g id="edge5" class="edge">
<title>abism_front_AnswerReturn&#45;&gt;abism_back_Strehl</title>
<path fill="none" stroke="#000000" d="M448.1628,-380.423C448.1628,-341.9787 448.1628,-250 448.1628,-250 448.1628,-250 385.1055,-250 385.1055,-250"/>
<polygon fill="#9b2626" stroke="#000000" points="385.1055,-246.5001 375.1055,-250 385.1055,-253.5001 385.1055,-246.5001"/>
</g>
<!-- abism_back_fit_template_function -->
<g id="node17" class="node">
<title>abism_back_fit_template_function</title>
<ellipse fill="#bf9ede" stroke="#000000" cx="348" cy="-106" rx="62.9739" ry="18"/>
<text text-anchor="middle" x="348" y="-103.5" font-family="Helvetica,sans-Serif" font-size="10.00" fill="#000000">fit_template_function</text>
</g>
<!-- abism_front_AnswerReturn&#45;&gt;abism_back_fit_template_function -->
<g id="edge10" class="edge">
<title>abism_front_AnswerReturn&#45;&gt;abism_back_fit_template_function</title>
<path fill="none" stroke="#000000" d="M422.8539,-403C413.6577,-403 406.6926,-403 406.6926,-403 406.6926,-403 406.6926,-122.7613 406.6926,-122.7613"/>
<polygon fill="#9b2626" stroke="#000000" points="410.1927,-122.7613 406.6926,-112.7613 403.1927,-122.7613 410.1927,-122.7613"/>
</g>
<!-- abism_front_matplotlib_extension -->
<g id="node6" class="node">
<title>abism_front_matplotlib_extension</title>
<ellipse fill="#d48a7d" stroke="#000000" cx="340" cy="-397" rx="62.2967" ry="18"/>
<text text-anchor="middle" x="340" y="-394.5" font-family="Helvetica,sans-Serif" font-size="10.00" fill="#000000">matplotlib_extension</text>
</g>
<!-- abism_front_window_root&#45;&gt;abism_front_frame_text -->
<g id="edge20" class="edge">
<title>abism_front_window_root&#45;&gt;abism_front_frame_text</title>
<path fill="none" stroke="#000000" d="M454.8547,-602.1177C454.8547,-602.1177 454.8547,-568.8311 454.8547,-568.8311"/>
<polygon fill="#913030" stroke="#000000" points="458.3548,-568.8311 454.8547,-558.8311 451.3548,-568.8312 458.3548,-568.8311"/>
</g>
<!-- abism_front_window_root&#45;&gt;abism_front_menu_bar -->
<g id="edge23" class="edge">
<title>abism_front_window_root&#45;&gt;abism_front_menu_bar</title>
<path fill="none" stroke="#000000" d="M385.9172,-616C353.4758,-616 314.1156,-616 314.1156,-616 314.1156,-616 314.1156,-569.6229 314.1156,-569.6229"/>
<polygon fill="#913030" stroke="#000000" points="317.6157,-569.6229 314.1156,-559.6229 310.6157,-569.623 317.6157,-569.6229"/>
</g>
<!-- abism_front_frame_plot -->
<g id="node9" class="node">
<title>abism_front_frame_plot</title>
<ellipse fill="#d48a7d" stroke="#000000" cx="385" cy="-544" rx="36.4942" ry="18"/>
<text text-anchor="middle" x="385" y="-541.5" font-family="Helvetica,sans-Serif" font-size="10.00" fill="#000000">frame_plot</text>
</g>
<!-- abism_front_window_root&#45;&gt;abism_front_frame_plot -->
<g id="edge19" class="edge">
<title>abism_front_window_root&#45;&gt;abism_front_frame_plot</title>
<path fill="none" stroke="#000000" d="M403.851,-601.0816C403.851,-601.0816 403.851,-569.6465 403.851,-569.6465"/>
<polygon fill="#913030" stroke="#000000" points="407.3511,-569.6465 403.851,-559.6465 400.3511,-569.6465 407.3511,-569.6465"/>
</g>
<!-- abism_front_window_root&#45;&gt;abism_back_image_info -->
<g id="edge13" class="edge">
<title>abism_front_window_root&#45;&gt;abism_back_image_info</title>
<path fill="none" stroke="#000000" d="M469.8689,-616C500.3425,-616 536.2929,-616 536.2929,-616 536.2929,-616 536.2929,-106 536.2929,-106 536.2929,-106 514.8903,-106 514.8903,-106"/>
<polygon fill="#913030" stroke="#000000" points="514.8904,-102.5001 504.8903,-106 514.8903,-109.5001 514.8904,-102.5001"/>
</g>
<!-- abism_front_artist -->
<g id="node8" class="node">
<title>abism_front_artist</title>
<ellipse fill="#d48a7d" stroke="#000000" cx="233" cy="-397" rx="27" ry="18"/>
<text text-anchor="middle" x="233" y="-394.5" font-family="Helvetica,sans-Serif" font-size="10.00" fill="#000000">artist</text>
</g>
<!-- abism_front_frame_plot&#45;&gt;abism_front_AnswerReturn -->
<g id="edge16" class="edge">
<title>abism_front_frame_plot&#45;&gt;abism_front_AnswerReturn</title>
<path fill="none" stroke="#000000" d="M415.7413,-533.9612C415.7413,-499.9229 415.7413,-391 415.7413,-391 415.7413,-391 416.454,-391 416.454,-391"/>
<polygon fill="#913030" stroke="#000000" points="412.8686,-394.5002 422.8686,-391 412.8685,-387.5002 412.8686,-394.5002"/>
</g>
<!-- abism_front_frame_plot&#45;&gt;abism_front_matplotlib_extension -->
<g id="edge21" class="edge">
<title>abism_front_frame_plot&#45;&gt;abism_front_matplotlib_extension</title>
<path fill="none" stroke="#000000" d="M375.4506,-526.5599C375.4506,-526.5599 375.4506,-422.1972 375.4506,-422.1972"/>
<polygon fill="#913030" stroke="#000000" points="378.9507,-422.1972 375.4506,-412.1972 371.9507,-422.1973 378.9507,-422.1972"/>
</g>
<!-- abism_front_frame_plot&#45;&gt;abism_front_pick -->
<g id="edge24" class="edge">
<title>abism_front_frame_plot&#45;&gt;abism_front_pick</title>
<path fill="none" stroke="#000000" d="M348.3262,-544C342.2413,-544 337.8656,-544 337.8656,-544 337.8656,-544 337.8656,-494.2138 337.8656,-494.2138"/>
<polygon fill="#913030" stroke="#000000" points="341.3657,-494.2138 337.8656,-484.2138 334.3657,-494.2139 341.3657,-494.2138"/>
</g>
<!-- abism_front_pick&#45;&gt;abism_front_AnswerReturn -->
<g id="edge17" class="edge">
<title>abism_front_pick&#45;&gt;abism_front_AnswerReturn</title>
<path fill="none" stroke="#000000" d="M345.2829,-472C378.6385,-472 430.7057,-472 430.7057,-472 430.7057,-472 430.7057,-418.3909 430.7057,-418.3909"/>
<polygon fill="#a32828" stroke="#000000" points="434.2058,-418.3909 430.7057,-408.3909 427.2058,-418.3909 434.2058,-418.3909"/>
</g>
<!-- abism_front_pick&#45;&gt;abism_front_matplotlib_extension -->
<g id="edge22" class="edge">
<title>abism_front_pick&#45;&gt;abism_front_matplotlib_extension</title>
<path fill="none" stroke="#000000" d="M318,-453.8446C318,-453.8446 318,-423.9601 318,-423.9601"/>
<polygon fill="#a32828" stroke="#000000" points="321.5001,-423.9601 318,-413.9601 314.5001,-423.9601 321.5001,-423.9601"/>
</g>
<!-- abism_front_pick&#45;&gt;abism_front_artist -->
<g id="edge18" class="edge">
<title>abism_front_pick&#45;&gt;abism_front_artist</title>
<path fill="none" stroke="#000000" d="M292.4972,-478C267.4599,-478 233,-478 233,-478 233,-478 233,-425.3802 233,-425.3802"/>
<polygon fill="#a32828" stroke="#000000" points="236.5001,-425.3801 233,-415.3802 229.5001,-425.3802 236.5001,-425.3801"/>
</g>
<!-- abism_front_pick&#45;&gt;abism_back_Strehl -->
<g id="edge6" class="edge">
<title>abism_front_pick&#45;&gt;abism_back_Strehl</title>
<path fill="none" stroke="#000000" d="M292.2816,-466C283.326,-466 275.4744,-466 275.4744,-466 275.4744,-466 275.4744,-244 275.4744,-244 275.4744,-244 312.226,-244 312.226,-244"/>
<polygon fill="#a32828" stroke="#000000" points="312.226,-247.5001 322.226,-244 312.2259,-240.5001 312.226,-247.5001"/>
</g>
<!-- abism_back_leastsqbound -->
<g id="node11" class="node">
<title>abism_back_leastsqbound</title>
<ellipse fill="#bf9ede" stroke="#000000" cx="245" cy="-34" rx="43.6222" ry="18"/>
<text text-anchor="middle" x="245" y="-31.5" font-family="Helvetica,sans-Serif" font-size="10.00" fill="#000000">leastsqbound</text>
</g>
<!-- abism_back_read_header -->
<g id="node12" class="node">
<title>abism_back_read_header</title>
<ellipse fill="#bf9ede" stroke="#000000" cx="464" cy="-34" rx="41.4139" ry="18"/>
<text text-anchor="middle" x="464" y="-31.5" font-family="Helvetica,sans-Serif" font-size="10.00" fill="#000000">read_header</text>
</g>
<!-- abism_back_StrehlImage -->
<g id="node13" class="node">
<title>abism_back_StrehlImage</title>
<ellipse fill="#bf9ede" stroke="#000000" cx="348" cy="-178" rx="40.7358" ry="18"/>
<text text-anchor="middle" x="348" y="-175.5" font-family="Helvetica,sans-Serif" font-size="10.00" fill="#000000">StrehlImage</text>
</g>
<!-- abism_back_fit_helper -->
<g id="node14" class="node">
<title>abism_back_fit_helper</title>
<ellipse fill="#bf9ede" stroke="#000000" cx="234" cy="-106" rx="32.9303" ry="18"/>
<text text-anchor="middle" x="234" y="-103.5" font-family="Helvetica,sans-Serif" font-size="10.00" fill="#000000">fit_helper</text>
</g>
<!-- abism_back_StrehlImage&#45;&gt;abism_back_fit_helper -->
<g id="edge8" class="edge">
<title>abism_back_StrehlImage&#45;&gt;abism_back_fit_helper</title>
<path fill="none" stroke="#000000" d="M309.3867,-172C275.978,-172 233,-172 233,-172 233,-172 233,-134.0348 233,-134.0348"/>
<polygon fill="#993333" stroke="#000000" points="236.5001,-134.0348 233,-124.0348 229.5001,-134.0348 236.5001,-134.0348"/>
</g>
<!-- abism_back_StrehlImage&#45;&gt;abism_back_image_info -->
<g id="edge11" class="edge">
<title>abism_back_StrehlImage&#45;&gt;abism_back_image_info</title>
<path fill="none" stroke="#000000" d="M388.6202,-178C423.0936,-178 467,-178 467,-178 467,-178 467,-134.1686 467,-134.1686"/>
<polygon fill="#993333" stroke="#000000" points="470.5001,-134.1686 467,-124.1686 463.5001,-134.1687 470.5001,-134.1686"/>
</g>
<!-- abism_back_StrehlImage&#45;&gt;abism_back_fit_template_function -->
<g id="edge9" class="edge">
<title>abism_back_StrehlImage&#45;&gt;abism_back_fit_template_function</title>
<path fill="none" stroke="#000000" d="M348,-159.8314C348,-159.8314 348,-134.4133 348,-134.4133"/>
<polygon fill="#993333" stroke="#000000" points="351.5001,-134.4132 348,-124.4133 344.5001,-134.4133 351.5001,-134.4132"/>
</g>
<!-- abism_back_fit_helper&#45;&gt;abism_back_leastsqbound -->
<g id="edge14" class="edge">
<title>abism_back_fit_helper&#45;&gt;abism_back_leastsqbound</title>
<path fill="none" stroke="#000000" d="M234.202,-87.8314C234.202,-87.8314 234.202,-61.9134 234.202,-61.9134"/>
<polygon fill="#b03a3a" stroke="#000000" points="237.7021,-61.9134 234.202,-51.9134 230.7021,-61.9134 237.7021,-61.9134"/>
</g>
<!-- abism_back_image_info&#45;&gt;abism_back_read_header -->
<g id="edge15" class="edge">
<title>abism_back_image_info&#45;&gt;abism_back_read_header</title>
<path fill="none" stroke="#000000" d="M467,-87.8314C467,-87.8314 467,-62.4133 467,-62.4133"/>
<polygon fill="#c82323" stroke="#000000" points="470.5001,-62.4132 467,-52.4133 463.5001,-62.4133 470.5001,-62.4132"/>
</g>
<!-- abism_back_Strehl&#45;&gt;abism_back_StrehlImage -->
<g id="edge7" class="edge">
<title>abism_back_Strehl&#45;&gt;abism_back_StrehlImage</title>
<path fill="none" stroke="#000000" d="M348,-231.8314C348,-231.8314 348,-206.4133 348,-206.4133"/>
<polygon fill="#b42d2d" stroke="#000000" points="351.5001,-206.4132 348,-196.4133 344.5001,-206.4133 351.5001,-206.4132"/>
</g>
<!-- abism_plugin_histogram&#45;&gt;abism_plugin_xterm_console -->
<!-- abism_plugin_xterm_console&#45;&gt;abism_plugin_debug_console -->
<!-- abism_plugin_debug_console&#45;&gt;abism_plugin_window_header -->
</g>
</svg>
